<svg xmlns="http://www.w3.org/2000/svg" width="150" height="50" viewBox="0,0,150,50"><path fill="#333" d="M73.62 32.25L64.25 22.12L64.35 22.22Q65.14 25.87 65.14 29.60L65.20 29.66L65.06 29.52Q65.12 35.56 63.07 41.12L63.08 41.13L63.15 41.19Q62.08 41.46 59.83 42.22L59.83 42.22L59.66 42.05Q62.54 36.32 62.54 29.62L62.62 29.70L62.58 29.67Q62.55 20.99 58.06 13.57L58.03 13.54L58.05 13.56Q58.41 13.65 59.09 14.07L59.19 14.17L59.09 14.06Q71.35 25.45 79.19 34.70L79.08 34.59L79.19 34.70Q78.88 32.26 78.88 29.83L78.84 29.79L78.89 29.83Q78.89 22.60 81.40 16.39L81.30 16.30L81.32 16.31Q83.69 15.83 85.29 15.14L85.22 15.07L85.16 15.01Q81.96 21.30 81.66 28.45L81.55 28.34L81.64 28.43Q81.31 35.76 84.28 41.93L84.28 41.92L84.31 41.96Q83.75 41.89 83.33 41.70L83.27 41.64L83.21 41.57Q78.80 37.77 73.58 32.22L73.51 32.14ZM86.83 45.05L86.88 45.09L86.84 45.05Q87.32 45.23 87.73 45.42L87.76 45.44L88.70 45.89L88.73 45.91Q83.50 38.90 83.50 29.54L83.59 29.62L83.43 29.46Q83.46 22.26 86.78 16.02L86.91 16.15L86.76 16.00Q86.23 16.35 84.82 16.96L84.68 16.81L84.77 16.91Q85.21 16.13 86.05 14.57L86.02 14.54L85.92 14.44Q83.57 15.44 81.14 16.01L81.05 15.92L81.00 15.87Q78.35 22.33 78.35 29.75L78.40 29.80L78.45 29.85Q78.52 31.79 78.71 33.77L78.69 33.74L78.70 33.76Q74.01 28.04 69.25 23.43L69.14 23.32L59.04 13.60L59.23 13.79Q58.53 13.35 57.31 12.78L57.29 12.76L57.26 12.73Q62.17 20.50 62.17 29.60L62.31 29.74L62.14 29.56Q62.26 36.80 59.17 42.82L59.13 42.77L59.04 42.69Q59.40 42.63 61.04 42.02L61.03 42.00L61.02 42.00Q60.69 42.77 59.85 44.26L59.83 44.24L59.95 44.36Q61.36 43.90 64.83 43.10L64.80 43.08L64.77 43.05Q67.07 36.89 67.07 29.70L67.03 29.66L67.12 29.75Q67.06 27.59 66.83 25.46L66.83 25.46L66.84 25.48Q78.22 38.19 86.83 45.04Z"/><path fill="#222" d="M39.75 15.83L39.71 15.80L39.73 15.81Q41.74 20.80 42.32 25.98L42.31 25.97L42.15 25.82Q45.87 21.68 51.77 16.85L51.80 16.88L51.76 16.84Q55.13 16.71 57.76 15.92L57.63 15.79L51.08 21.42L51.02 21.36Q47.77 24.46 44.91 27.32L44.94 27.34L44.92 27.32Q52.78 36.36 57.84 41.08L57.92 41.16L57.86 41.10Q54.71 40.12 52.39 39.97L52.51 40.09L52.46 40.04Q46.76 34.72 42.45 28.89L42.43 28.87L42.32 28.76Q42.48 35.43 40.62 40.76L40.65 40.79L40.61 40.75Q40.38 40.79 39.89 40.98L39.97 41.07L39.79 41.08L39.87 41.15Q39.64 41.15 37.09 42.07L37.06 42.04L37.18 42.16Q40.04 35.50 39.70 28.04L39.64 27.99L39.74 28.08Q39.45 20.79 35.91 14.28L35.93 14.30L36.40 14.50L36.81 14.80L36.83 14.78L36.76 14.71Q37.51 15.12 39.72 15.80ZM39.97 15.48L39.99 15.50L40.04 15.56Q37.85 15.08 35.23 13.56L35.08 13.41L35.21 13.54Q39.35 20.68 39.35 29.63L39.45 29.74L39.49 29.77Q39.50 36.79 36.53 42.84L36.56 42.87L38.56 41.98L38.48 41.90Q38.06 42.89 37.37 44.18L37.48 44.29L37.35 44.16Q39.70 43.46 41.64 43.04L41.56 42.96L41.66 42.84L41.64 42.81Q41.92 42.79 42.49 42.64L42.58 42.72L42.55 42.70Q44.17 36.74 44.29 31.94L44.19 31.85L44.19 31.84Q46.26 34.34 48.09 36.21L48.24 36.35L48.26 36.38Q49.43 37.47 52.44 40.44L52.42 40.42L52.49 40.49L52.37 40.38Q53.40 41.21 55.27 42.81L55.37 42.91L55.21 42.75Q59.11 43.50 62.58 45.21L62.70 45.34L62.65 45.29Q53.27 36.62 47.02 29.20L47.03 29.21L47.12 29.29Q51.49 24.99 60.25 16.38L60.18 16.31L60.30 16.44Q57.64 17.47 55.63 17.85L55.68 17.91L55.69 17.91Q56.85 16.87 59.17 14.85L59.15 14.83L59.26 14.94Q55.18 16.38 51.83 16.57L51.81 16.55L51.82 16.56Q48.93 18.81 44.06 23.49L43.95 23.39L43.92 23.35Q43.60 20.83 43.03 18.28L43.01 18.26L42.98 18.23Q41.74 18.01 40.75 17.67L40.90 17.83L40.80 17.72Q40.71 17.10 40.13 15.65Z"/><path fill="#111" d="M21.78 40.99L21.72 40.93L21.80 41.02Q17.54 29.68 12.40 24.69L12.52 24.81L12.54 24.83Q13.97 25.42 16.94 26.07L16.89 26.01L16.97 26.10Q20.42 29.93 22.97 36.59L22.95 36.57L22.93 36.55Q25.71 29.31 28.33 26.27L28.19 26.13L28.38 26.32Q30.19 26.03 32.63 25.35L32.66 25.38L32.58 25.30Q29.49 28.11 27.32 32.67L27.36 32.71L27.39 32.75Q26.94 33.33 23.56 40.94L23.66 41.05L23.69 41.07Q23.00 41.07 21.78 40.99ZM26.51 43.52L26.44 43.45L26.48 43.49Q29.78 31.14 34.35 26.46L34.38 26.49L32.82 26.91L32.78 26.87Q32.10 27.22 31.26 27.33L31.17 27.24L31.21 27.28Q31.77 26.96 32.59 26.09L32.58 26.08L32.50 26.00Q33.28 25.09 33.74 24.67L33.71 24.64L33.86 24.79Q31.56 25.34 28.13 25.84L28.11 25.82L28.09 25.80Q25.33 28.94 23.27 34.53L23.33 34.59L23.31 34.57Q21.65 30.36 19.82 27.88L19.84 27.90L19.30 27.90L19.31 27.90Q19.04 27.90 18.81 27.90L18.92 28.01L18.85 27.94Q18.69 27.67 16.98 25.61L16.90 25.53L16.89 25.52Q13.59 25.08 11.35 23.94L11.44 24.03L11.34 23.93Q17.45 29.63 21.45 41.35L21.43 41.33L22.37 41.28L22.44 41.35Q22.87 42.08 23.71 43.38L23.69 43.36L25.03 43.33L25.08 43.38Q25.77 43.35 26.42 43.42Z"/><path fill="#222" d="M120.62 19.66L120.71 19.75L120.70 19.74Q118.65 19.78 117.70 19.94L117.78 20.01L117.70 19.94Q116.05 20.16 114.83 20.69L114.85 20.71L114.84 20.69Q111.40 22.20 111.29 26.89L111.15 26.75L111.19 26.79Q111.07 29.42 111.72 32.35L111.71 32.33L111.81 32.43Q112.76 36.55 116.38 37.73L116.38 37.73L116.29 37.64Q118.13 38.15 119.58 38.00L119.62 38.04L119.99 37.95L120.03 37.99Q120.32 38.09 120.51 38.13L120.38 38.00L120.42 38.04Q120.61 38.07 120.76 38.03L120.77 38.05L120.82 38.09Q123.41 37.79 124.78 37.22L124.76 37.21L121.18 33.66L121.16 33.64Q121.54 33.37 122.15 32.76L122.19 32.80L122.95 31.74L123.01 31.80Q124.77 33.78 126.75 35.84L126.84 35.93L126.90 35.99Q129.08 34.02 129.34 28.65L129.43 28.74L129.34 28.64Q129.44 27.76 129.44 26.84L129.56 26.96L129.56 26.97Q129.42 21.15 124.35 20.04L124.43 20.12L124.44 20.13Q123.22 19.90 120.71 19.75ZM133.46 41.79L133.48 41.80L133.42 41.75Q132.89 42.24 131.71 43.12L131.54 42.95L127.28 39.42L127.27 39.41Q124.66 40.49 120.40 40.53L120.44 40.57L120.48 40.61Q113.94 40.73 111.12 38.48L111.04 38.40L111.10 38.47Q109.38 36.74 108.92 33.77L108.93 33.78L108.83 33.68Q108.62 31.87 108.23 28.29L108.31 28.37L108.31 28.36Q108.25 27.59 108.14 25.83L108.17 25.86L108.21 25.90Q108.12 24.41 108.16 23.53L108.16 23.53L108.06 23.43Q108.26 20.47 110.01 18.91L109.93 18.83L109.99 18.89Q111.45 17.50 114.65 17.00L114.61 16.97L114.74 17.09Q117.20 16.70 120.10 16.78L120.01 16.69L120.08 16.76Q127.48 16.78 130.60 19.14L130.68 19.21L130.74 19.27Q132.86 21.35 132.59 26.26L132.61 26.28L132.61 26.28Q132.27 29.79 132.08 31.12L132.24 31.28L132.19 31.23Q131.54 35.72 129.22 38.04L129.21 38.03L129.29 38.12Q130.59 39.18 133.33 41.66ZM128.62 17.54L128.53 17.44L128.52 17.44Q126.51 16.72 120.00 16.23L120.09 16.32L120.07 16.29Q118.72 16.36 115.95 16.47L115.95 16.48L115.91 16.43Q111.58 16.56 109.34 18.54L109.42 18.62L109.39 18.60Q107.82 20.15 107.82 23.31L107.64 23.12L107.81 23.29Q107.81 24.13 107.96 25.84L107.97 25.86L107.81 25.70Q108.11 27.55 108.11 28.43L108.05 28.37L108.03 28.35Q108.14 30.06 108.52 33.64L108.59 33.71L108.53 33.65Q109.00 36.63 110.60 38.69L110.48 38.57L110.54 38.63Q110.93 39.51 112.15 40.65L112.04 40.55L112.16 40.67Q114.83 42.61 120.00 42.87L119.94 42.81L120.06 42.93Q120.26 42.79 122.66 42.90L122.78 43.02L122.81 43.06Q127.61 43.21 129.89 42.14L129.85 42.10L129.81 42.06Q130.64 42.70 135.36 46.28L135.32 46.24L135.47 46.38Q135.95 45.73 137.25 44.74L137.25 44.74L137.24 44.73Q136.36 44.04 135.56 43.36L135.58 43.38L134.02 42.00L134.03 41.86L133.98 41.82Q133.59 41.54 132.37 40.51L132.20 40.34L132.29 40.43Q134.18 37.90 134.18 33.37L134.10 33.29L134.13 33.32Q134.27 33.04 134.31 32.20L134.17 32.06L134.26 32.15Q134.24 31.26 134.24 30.84L134.19 30.79L134.27 30.87Q134.19 25.27 133.46 22.91L133.52 22.96L133.55 22.99Q133.20 21.73 132.32 20.67L132.25 20.59L132.25 20.59Q131.50 18.51 128.57 17.48ZM122.54 22.04L122.50 21.99L122.57 22.06Q126.68 22.02 128.50 23.62L128.34 23.46L128.38 23.50Q129.06 24.83 129.18 26.16L129.08 26.06L129.09 26.08Q129.18 27.35 129.11 28.72L129.17 28.78L129.19 28.80Q128.86 33.76 126.92 35.48L126.86 35.41L126.91 35.47Q125.46 34.01 122.94 31.27L122.95 31.28L123.04 31.37Q122.33 32.18 120.77 33.74L120.63 33.60L120.62 33.59Q121.32 34.33 122.46 35.51L122.43 35.48L122.26 35.42L122.22 35.38Q122.96 36.09 123.99 37.15L123.90 37.06L123.96 37.12Q122.88 37.30 120.56 37.61L120.56 37.60L120.05 37.62L119.60 37.60L119.73 37.76L119.65 37.68Q116.19 37.69 114.21 36.05L114.10 35.94L114.28 36.12Q113.20 33.98 113.24 30.85L113.26 30.87L113.22 30.84Q113.30 22.04 122.47 21.97Z"/><path fill="#111" d="M92.43 40.31L92.48 40.36L92.44 40.32Q91.10 40.46 89.54 40.04L89.50 40.01L89.41 39.92Q88.25 39.06 88.09 37.42L88.03 37.36L88.06 37.39Q88.11 37.29 88.30 34.66L88.30 34.65L88.29 34.65Q89.32 34.46 91.34 34.08L91.31 34.05L91.23 34.92L91.22 34.91Q90.94 36.65 92.34 37.22L92.31 37.18L92.33 37.20Q93.00 37.42 95.09 37.42L95.13 37.45L95.11 37.43Q96.73 37.31 96.92 37.23L96.96 37.27L96.90 37.20Q97.83 37.07 98.55 36.57L98.53 36.55L98.51 36.53Q99.91 35.57 99.72 33.47L99.78 33.53L99.85 33.61Q99.55 31.06 97.82 29.50L97.98 29.66L97.96 29.64Q96.23 28.08 93.75 28.08L93.77 28.10L93.73 27.83L93.64 27.74Q94.01 27.70 94.89 27.62L94.89 27.62L94.98 27.71Q96.88 27.59 98.25 26.35L98.26 26.37L98.14 26.24Q99.65 25.15 99.81 23.28L99.73 23.21L99.76 23.24Q99.90 22.96 99.90 22.61L99.72 22.44L99.80 22.51Q99.75 20.95 98.38 20.03L98.52 20.17L98.39 20.04Q97.25 19.31 95.65 19.43L95.59 19.38L95.53 19.31Q94.39 19.31 93.17 19.73L93.08 19.64L93.07 19.63Q91.73 20.27 91.42 21.41L91.33 21.32L91.34 21.33Q91.08 22.02 91.16 22.78L91.25 22.88L91.15 22.77Q90.16 22.58 88.10 21.86L88.18 21.94L88.07 21.83Q87.90 20.21 87.94 19.37L87.99 19.43L88.05 19.48Q88.07 17.86 89.13 17.18L89.19 17.23L89.22 17.27Q90.55 16.58 92.15 16.58L92.08 16.51L92.13 16.56Q95.34 16.57 98.50 16.84L98.39 16.73L98.41 16.75Q103.47 17.16 103.16 20.93L103.23 21.00L103.28 21.05Q103.25 22.58 102.76 24.14L102.62 24.00L102.62 24.00Q101.68 27.06 99.32 27.97L99.45 28.11L99.44 28.10Q101.94 28.51 102.55 31.86L102.56 31.86L102.57 31.87Q102.81 33.03 102.89 35.04L102.91 35.07L102.92 35.08Q103.10 39.56 98.49 40.01L98.52 40.04L98.45 39.98Q97.75 40.07 92.46 40.34ZM97.75 42.66L97.62 42.53L97.59 42.50Q98.25 42.59 101.11 42.67L101.16 42.72L101.07 42.64Q102.95 42.84 104.59 42.19L104.46 42.06L104.51 42.11Q105.74 41.21 105.55 39.46L105.52 39.43L105.53 39.44Q105.44 38.13 105.14 36.38L105.01 36.26L105.06 36.30Q104.31 31.79 102.37 30.15L102.49 30.27L102.19 29.78L102.15 29.70L102.21 29.76Q103.92 28.27 104.68 23.89L104.66 23.88L104.77 23.98Q104.72 23.44 104.83 22.48L104.95 22.60L104.78 22.44Q104.88 21.69 104.80 21.01L104.89 21.10L104.80 21.01Q104.72 19.40 103.42 18.72L103.40 18.70L103.40 18.77L103.33 18.70Q103.13 17.82 101.99 17.28L101.87 17.16L101.93 17.23Q100.45 16.59 95.32 16.28L95.16 16.13L95.28 16.25Q93.58 16.14 91.98 16.14L91.90 16.06L91.89 16.06Q90.30 16.07 88.78 16.71L88.77 16.70L88.76 16.70Q87.61 17.53 87.61 19.28L87.67 19.34L87.72 19.38Q87.64 18.89 87.91 22.24L87.90 22.22L87.88 22.21Q88.27 22.37 89.91 22.98L89.76 22.83L89.89 22.96Q89.80 23.40 89.76 23.90L89.75 23.89L89.73 23.87Q89.87 24.51 89.91 25.04L89.78 24.91L89.93 25.06Q91.71 25.43 93.73 25.54L93.69 25.50L93.71 25.52Q93.51 23.39 94.62 22.55L94.66 22.59L94.73 22.67Q95.60 22.04 97.61 21.82L97.49 21.70L97.47 21.67Q98.65 21.71 99.22 21.90L99.18 21.86L99.28 21.96Q99.25 22.01 99.29 22.12L99.40 22.23L99.28 22.31L99.48 22.96L99.36 22.84Q99.49 23.15 99.45 23.31L99.37 23.22L99.35 23.21Q99.25 24.90 97.73 26.08L97.76 26.11L97.70 26.05Q96.85 27.03 94.83 27.22L94.77 27.15L94.89 27.28Q94.09 27.35 93.21 27.35L93.31 27.45L93.20 27.34Q93.32 27.77 93.48 28.45L93.42 28.39L93.55 28.52Q95.20 28.43 96.65 29.15L96.55 29.05L96.44 29.06L94.97 29.34L94.89 29.26Q95.05 29.73 95.17 30.33L95.08 30.25L95.08 30.25Q97.25 30.21 98.96 31.54L98.95 31.53L99.06 31.64Q99.14 31.87 99.44 33.50L99.45 33.52L99.60 33.66Q99.73 36.53 96.80 36.95L96.72 36.88L96.76 36.92Q94.74 37.25 94.17 37.22L94.08 37.13L94.03 37.08Q93.65 37.04 93.12 36.96L93.06 36.90L93.17 36.56L93.26 36.08L93.23 35.63L93.25 35.31L93.37 35.43Q92.31 35.40 91.51 35.59L91.60 35.68L91.63 35.71Q91.50 35.38 91.50 35.19L91.50 35.20L91.47 35.16Q91.47 34.94 91.47 34.71L91.53 34.77L91.55 34.79Q91.50 34.28 91.66 33.56L91.76 33.67L91.75 33.65Q89.95 33.94 88.08 34.29L88.05 34.25L88.09 34.30Q87.97 34.67 87.85 35.79L87.84 35.78L87.84 35.78Q87.72 36.90 87.72 37.51L87.73 37.52L87.83 37.62Q87.81 39.57 89.18 40.33L89.19 40.34L89.32 40.48Q90.76 42.72 95.48 42.52L95.49 42.53L95.46 42.50Q96.16 42.44 97.68 42.59Z"/></svg>